<svg width="34" height="36" viewBox="0 0 34 36" fill="none" xmlns="http://www.w3.org/2000/svg">
<path d="M11.3722 27.9422C11.3722 28.0828 11.2145 28.1953 11.0157 28.1953C10.7895 28.2164 10.6319 28.1039 10.6319 27.9422C10.6319 27.8016 10.7895 27.6891 10.9883 27.6891C11.194 27.668 11.3722 27.7805 11.3722 27.9422ZM9.24032 27.6258C9.19234 27.7664 9.32944 27.9281 9.53508 27.9703C9.71331 28.0406 9.91895 27.9703 9.96008 27.8297C10.0012 27.6891 9.87097 27.5273 9.66532 27.4641C9.4871 27.4148 9.28831 27.4851 9.24032 27.6258ZM12.2702 27.5062C12.0714 27.5555 11.9343 27.6891 11.9548 27.8508C11.9754 27.9914 12.1536 28.0828 12.3593 28.0336C12.5581 27.9844 12.6952 27.8508 12.6746 27.7101C12.654 27.5766 12.469 27.4851 12.2702 27.5062ZM16.7806 0.5625C7.27298 0.5625 0 7.9664 0 17.7187C0 25.5164 4.78468 32.1891 11.619 34.5375C12.4964 34.6992 12.8048 34.1437 12.8048 33.6867C12.8048 33.2508 12.7843 30.8461 12.7843 29.3695C12.7843 29.3695 7.98589 30.4242 6.97823 27.2742C6.97823 27.2742 6.19677 25.2281 5.07258 24.7008C5.07258 24.7008 3.50282 23.5969 5.18226 23.618C5.18226 23.618 6.88911 23.7586 7.82823 25.432C9.32944 28.1461 11.8452 27.3656 12.8254 26.9016C12.9831 25.7766 13.4286 24.9961 13.9222 24.532C10.0903 24.0961 6.22419 23.5266 6.22419 16.7625C6.22419 14.8289 6.74516 13.8586 7.84194 12.6211C7.66371 12.1641 7.08105 10.2797 8.02016 7.84687C9.45282 7.38984 12.75 9.74531 12.75 9.74531C14.121 9.35156 15.5948 9.14765 17.0548 9.14765C18.5149 9.14765 19.9887 9.35156 21.3597 9.74531C21.3597 9.74531 24.6569 7.38281 26.0895 7.84687C27.0286 10.2867 26.446 12.1641 26.2677 12.6211C27.3645 13.8656 28.0363 14.8359 28.0363 16.7625C28.0363 23.5476 23.9988 24.0891 20.1669 24.532C20.7976 25.0875 21.3323 26.1422 21.3323 27.7945C21.3323 30.1641 21.3117 33.0961 21.3117 33.6726C21.3117 34.1297 21.627 34.6851 22.4976 34.5234C29.3524 32.1891 34 25.5164 34 17.7187C34 7.9664 26.2883 0.5625 16.7806 0.5625ZM6.6629 24.8133C6.57379 24.8836 6.59436 25.0453 6.71089 25.1789C6.82056 25.2914 6.97823 25.3406 7.06734 25.2492C7.15645 25.1789 7.13589 25.0172 7.01936 24.8836C6.90968 24.7711 6.75202 24.7219 6.6629 24.8133ZM5.92258 24.2437C5.8746 24.3351 5.94315 24.4476 6.08024 24.518C6.18992 24.5883 6.32702 24.5672 6.375 24.4687C6.42298 24.3773 6.35444 24.2648 6.21734 24.1945C6.08024 24.1523 5.97056 24.1734 5.92258 24.2437ZM8.14355 26.7469C8.03387 26.8383 8.075 27.0492 8.23266 27.1828C8.39032 27.3445 8.58911 27.3656 8.67823 27.2531C8.76734 27.1617 8.72621 26.9508 8.58911 26.8172C8.43831 26.6555 8.23266 26.6344 8.14355 26.7469ZM7.3621 25.7133C7.25242 25.7836 7.25242 25.9664 7.3621 26.1281C7.47177 26.2898 7.65686 26.3601 7.74597 26.2898C7.85565 26.1984 7.85565 26.0156 7.74597 25.8539C7.65 25.6922 7.47177 25.6219 7.3621 25.7133Z" fill="#F5F5F5"/>
</svg>
