<svg width="34" height="36" viewBox="0 0 34 36" fill="none" xmlns="http://www.w3.org/2000/svg">
<path d="M7.61054 31.4998H0.561607V10.4693H7.61054V31.4998ZM4.08228 7.60054C1.82826 7.60054 0 5.87085 0 3.78257C1.61333e-08 2.77949 0.430096 1.81749 1.19567 1.10821C1.96125 0.398929 2.99959 0.000457764 4.08228 0.000457764C5.16496 0.000457764 6.20331 0.398929 6.96888 1.10821C7.73446 1.81749 8.16455 2.77949 8.16455 3.78257C8.16455 5.87085 6.33554 7.60054 4.08228 7.60054ZM33.9924 31.4998H26.9587V21.2623C26.9587 18.8224 26.9055 15.6935 23.2938 15.6935C19.6289 15.6935 19.0673 18.3443 19.0673 21.0865V31.4998H12.026V10.4693H18.7865V13.338H18.8852C19.8263 11.6857 22.125 9.94194 25.5546 9.94194C32.6886 9.94194 34 14.2943 34 19.9474V31.4998H33.9924Z" fill="#F5F5F5"/>
</svg>
